<svg viewBox="0 0 100 100" xmlns="http://www.w3.org/2000/svg">
  <defs>
    <linearGradient id="metalGrad" x1="0%" y1="0%" x2="100%" y2="100%">
      <stop offset="0%" style="stop-color:#ffd700;stop-opacity:1" />
      <stop offset="50%" style="stop-color:#ffed4e;stop-opacity:1" />
      <stop offset="100%" style="stop-color:#cc9900;stop-opacity:1" />
    </linearGradient>
    <filter id="smallGlow">
      <feGaussianBlur stdDeviation="1" result="coloredBlur"/>
      <feMerge>
        <feMergeNode in="coloredBlur"/>
        <feMergeNode in="SourceGraphic"/>
      </feMerge>
    </filter>
  </defs>
  <rect width="100" height="100" fill="#1a1a2e"/>
  <g filter="url(#smallGlow)">
    <path d="M 30 30 L 38 70 L 35 70 L 27 30 Z" fill="url(#metalGrad)" opacity="0.9"/>
    <rect x="25" y="71" width="12" height="4" fill="#8b4513" rx="1"/>
    <rect x="28" y="75" width="6" height="12" fill="#a0522d" rx="1"/>
    <circle cx="31" cy="88" r="2" fill="#8b4513"/>
  </g>
  <g filter="url(#smallGlow)">
    <path d="M 70 30 L 62 70 L 65 70 L 73 30 Z" fill="url(#metalGrad)" opacity="0.9"/>
    <rect x="63" y="71" width="12" height="4" fill="#8b4513" rx="1"/>
    <rect x="66" y="75" width="6" height="12" fill="#a0522d" rx="1"/>
    <circle cx="69" cy="88" r="2" fill="#8b4513"/>
  </g>
  <g filter="url(#smallGlow)">
    <path d="M 50 25 L 55 50 L 47 50 L 60 80 L 42 60 L 50 60 Z" fill="#ffd700" opacity="0.95"/>
    <path d="M 50 30 L 54 48 L 48 48 L 58 75 L 44 58 L 50 58 Z" fill="#ffff99" opacity="0.7"/>
  </g>
</svg>
