<svg viewBox="0 0 200 200" xmlns="http://www.w3.org/2000/svg">
  <defs>
    <linearGradient id="metalGradient" x1="0%" y1="0%" x2="100%" y2="100%">
      <stop offset="0%" style="stop-color:#ffd700;stop-opacity:1" />
      <stop offset="50%" style="stop-color:#ffed4e;stop-opacity:1" />
      <stop offset="100%" style="stop-color:#cc9900;stop-opacity:1" />
    </linearGradient>
    <filter id="glow">
      <feGaussianBlur stdDeviation="2" result="coloredBlur"/>
      <feMerge>
        <feMergeNode in="coloredBlur"/>
        <feMergeNode in="SourceGraphic"/>
      </feMerge>
    </filter>
  </defs>
  <g filter="url(#glow)">
    <path d="M 60 60 L 75 140 L 70 140 L 55 60 Z" fill="url(#metalGradient)" opacity="0.9"/>
    <path d="M 60 60 L 72 140 L 71 140 L 58 60 Z" fill="#ffff99" opacity="0.5"/>
    <rect x="50" y="142" width="25" height="8" fill="#8b4513" rx="2"/>
    <rect x="56" y="150" width="13" height="25" fill="#a0522d" rx="2"/>
    <line x1="56" y1="156" x2="69" y2="156" stroke="#8b4513" stroke-width="1" opacity="0.6"/>
    <line x1="56" y1="162" x2="69" y2="162" stroke="#8b4513" stroke-width="1" opacity="0.6"/>
    <line x1="56" y1="168" x2="69" y2="168" stroke="#8b4513" stroke-width="1" opacity="0.6"/>
    <circle cx="62.5" cy="177" r="4" fill="#8b4513"/>
  </g>
  <g filter="url(#glow)">
    <path d="M 140 60 L 125 140 L 130 140 L 145 60 Z" fill="url(#metalGradient)" opacity="0.9"/>
    <path d="M 140 60 L 128 140 L 129 140 L 142 60 Z" fill="#ffff99" opacity="0.5"/>
    <rect x="125" y="142" width="25" height="8" fill="#8b4513" rx="2"/>
    <rect x="131" y="150" width="13" height="25" fill="#a0522d" rx="2"/>
    <line x1="131" y1="156" x2="144" y2="156" stroke="#8b4513" stroke-width="1" opacity="0.6"/>
    <line x1="131" y1="162" x2="144" y2="162" stroke="#8b4513" stroke-width="1" opacity="0.6"/>
    <line x1="131" y1="168" x2="144" y2="168" stroke="#8b4513" stroke-width="1" opacity="0.6"/>
    <circle cx="137.5" cy="177" r="4" fill="#8b4513"/>
  </g>
  <g filter="url(#glow)">
    <path d="M 100 50 L 108 95 L 95 95 L 115 150 L 85 115 L 98 115 Z" fill="#ffd700" opacity="0.95"/>
    <path d="M 100 60 L 105 90 L 97 90 L 110 140 L 90 110 L 100 110 Z" fill="#ffff99" opacity="0.7"/>
    <path d="M 100 50 L 108 95 L 95 95 L 115 150 L 85 115 L 98 115 Z" fill="#ffd700" opacity="0.3" filter="url(#glow)"/>
  </g>
</svg>
